<?xml version="1.0" standalone="no"?>
<!DOCTYPE svg PUBLIC "-//W3C//DTD SVG 20010904//EN"
 "http://www.w3.org/TR/2001/REC-SVG-20010904/DTD/svg10.dtd">
<svg version="1.0" xmlns="http://www.w3.org/2000/svg"
 width="190.000000pt" height="266.000000pt" viewBox="0 0 190.000000 266.000000"
 preserveAspectRatio="xMidYMid meet">

<g transform="translate(0.000000,266.000000) scale(0.100000,-0.100000)"
fill="#000000" stroke="none">
<path d="M972 2581 c-8 -5 23 -11 78 -14 50 -4 100 -12 111 -18 12 -6 23 -9
25 -6 3 3 -15 14 -39 26 -45 22 -149 29 -175 12z"/>
<path d="M921 2540 c-38 -4 -46 -10 -65 -45 -27 -49 -50 -130 -41 -144 3 -6 1
-11 -4 -11 -6 0 -11 -9 -11 -21 0 -18 4 -20 26 -15 17 5 23 3 19 -4 -3 -5 -17
-10 -31 -10 -14 0 -24 -6 -24 -14 0 -8 -15 -16 -37 -20 -155 -26 -223 -42
-223 -53 0 -7 -7 -13 -15 -13 -8 0 -15 -9 -15 -20 0 -11 -4 -20 -9 -20 -11 0
-12 -98 0 -105 4 -3 6 -12 3 -19 -3 -7 1 -20 10 -28 8 -8 16 -26 18 -39 2 -15
11 -25 24 -27 30 -4 38 24 14 48 -11 11 -20 31 -20 44 0 40 48 74 65 46 9 -15
25 -12 25 5 0 9 7 15 17 13 11 -2 19 5 21 17 4 26 35 85 44 85 4 0 10 -4 13
-10 10 -17 37 -11 42 9 3 12 11 17 19 14 8 -3 22 -2 32 2 24 11 75 5 84 -9 6
-8 16 -6 37 6 25 14 30 14 35 2 6 -16 52 -19 61 -4 4 6 13 5 25 -2 14 -9 22
-9 33 0 11 10 17 9 27 -3 14 -17 66 -20 75 -4 5 7 14 3 27 -11 11 -12 26 -19
33 -16 9 3 15 -4 17 -17 2 -13 10 -22 20 -21 9 1 16 -6 16 -15 0 -20 22 -181
28 -200 4 -11 9 -9 25 7 22 24 58 29 77 10 7 -7 12 -28 12 -48 0 -43 -25 -71
-64 -74 -23 -1 -26 -5 -26 -37 0 -31 4 -38 26 -43 15 -4 32 -2 37 3 6 6 20 11
32 11 12 0 26 5 32 11 9 9 20 9 44 0 68 -24 157 -3 181 43 35 65 -12 156 -127
243 -61 46 -191 115 -278 148 -33 12 -47 23 -45 34 1 9 -1 22 -6 30 -6 9 -5
12 1 8 12 -8 23 46 23 114 0 47 -25 113 -40 104 -4 -3 -7 3 -6 11 2 34 -193
68 -313 54z m202 -27 c-7 -2 -21 -2 -30 0 -10 3 -4 5 12 5 17 0 24 -2 18 -5z
m67 -7 c0 -11 -19 -15 -25 -6 -3 5 1 10 9 10 9 0 16 -2 16 -4z m-63 -12 c-3
-3 -12 -4 -19 -1 -8 3 -5 6 6 6 11 1 17 -2 13 -5z m-52 -14 c-11 -5 -29 -8
-40 -8 -16 0 -15 2 5 8 34 11 60 11 35 0z m137 -52 c-8 -8 -9 -4 -5 13 4 13 8
18 11 10 2 -7 -1 -18 -6 -23z m-22 -8 c0 -5 -2 -10 -4 -10 -3 0 -8 5 -11 10
-3 6 -1 10 4 10 6 0 11 -4 11 -10z m-295 -49 c3 -5 1 -12 -5 -16 -5 -3 -10 1
-10 9 0 18 6 21 15 7z m-10 -41 c-3 -5 -12 -10 -18 -10 -7 0 -6 4 3 10 19 12
23 12 15 0z m105 -35 c11 -13 10 -14 -4 -9 -9 3 -16 10 -16 15 0 13 6 11 20
-6z m103 -4 c18 -17 -6 -41 -39 -41 -31 0 -34 2 -34 31 0 29 1 30 33 24 17 -4
36 -10 40 -14z m513 -331 c3 0 4 7 0 15 -3 8 -1 15 4 15 6 0 10 -7 10 -16 0
-9 6 -14 13 -11 8 3 14 0 14 -7 0 -7 -8 -13 -18 -13 -21 -2 -59 42 -59 66 1 9
7 1 15 -16 8 -18 17 -33 21 -33z m-23 -79 c3 -11 -1 -22 -8 -24 -8 -4 -10 3
-7 19 5 29 8 30 15 5z m111 3 c3 -8 2 -12 -4 -9 -6 3 -10 10 -10 16 0 14 7 11
14 -7z"/>
<path d="M808 2179 c-21 -12 -24 -59 -4 -59 7 0 19 7 26 15 17 20 26 19 50 -7
l20 -22 0 22 c0 26 -33 62 -57 62 -10 0 -26 -5 -35 -11z"/>
<path d="M1117 2112 c-17 -18 -23 -42 -11 -42 3 0 14 5 24 10 12 6 28 7 44 1
28 -11 39 3 24 32 -12 23 -60 22 -81 -1z"/>
<path d="M569 2043 c0 -4 -2 -18 -5 -30 -3 -18 1 -23 15 -23 15 0 19 6 18 27
-2 24 -26 47 -28 26z"/>
<path d="M824 2013 c0 -11 -6 -17 -16 -17 -21 2 -25 -35 -6 -54 16 -16 29 -15
26 1 -2 6 5 11 15 11 20 -2 24 45 5 64 -17 17 -26 15 -24 -5z"/>
<path d="M1127 1960 c4 -14 0 -20 -11 -20 -17 0 -20 -17 -10 -44 8 -22 32 -20
30 2 -1 11 5 16 17 14 19 -3 23 19 7 49 -14 26 -40 25 -33 -1z"/>
<path d="M1378 1876 c-8 -20 -9 -29 0 -38 16 -16 44 9 40 35 -5 31 -26 32 -40
3z"/>
<path d="M793 1776 c2 -6 23 -26 46 -44 41 -31 44 -31 56 -15 11 15 11 20 -3
33 -23 20 -104 42 -99 26z"/>
<path d="M668 1664 c-4 -3 0 -17 8 -32 20 -39 16 -106 -10 -187 -16 -51 -27
-69 -38 -67 -8 1 -24 -10 -34 -25 -10 -16 -23 -34 -30 -40 -18 -18 -104 -63
-123 -64 -10 0 -11 -2 -4 -6 9 -3 6 -13 -9 -34 l-22 -29 30 -31 c51 -54 208
-119 253 -104 38 12 72 104 96 262 27 180 18 266 -37 328 -27 32 -65 45 -80
29z m122 -159 c0 -16 -27 -32 -37 -22 -3 4 -3 13 0 22 8 20 37 20 37 0z m-12
-138 c2 -12 -3 -17 -17 -17 -12 0 -21 6 -21 13 0 31 32 34 38 4z m-28 -121 c0
-20 -19 -31 -32 -18 -6 6 -7 15 -4 21 10 16 36 13 36 -3z m-42 -123 c-2 -10
-10 -18 -18 -18 -8 0 -16 8 -18 18 -2 12 3 17 18 17 15 0 20 -5 18 -17z"/>
<path d="M210 1655 c0 -5 5 -17 10 -25 5 -8 10 -10 10 -5 0 6 -5 17 -10 25 -5
8 -10 11 -10 5z"/>
<path d="M780 1631 c0 -5 5 -11 10 -13 17 -5 39 -79 41 -138 1 -43 3 -48 8
-25 3 16 16 34 28 40 21 11 21 11 2 23 -20 13 -39 52 -42 84 -1 17 -47 45 -47
29z"/>
<path d="M318 1573 c6 -2 18 -2 25 0 6 3 1 5 -13 5 -14 0 -19 -2 -12 -5z"/>
<path d="M1032 1541 c28 -57 35 -194 14 -302 -28 -150 -18 -209 35 -209 50 0
119 62 119 106 0 24 14 32 25 14 10 -15 97 -12 146 6 24 9 55 17 68 18 13 0
26 7 29 15 3 8 0 11 -7 7 -6 -4 -11 0 -11 10 0 13 -3 14 -14 5 -15 -13 -147
-43 -155 -36 -2 3 -11 -1 -19 -8 -13 -10 -15 -9 -10 5 5 11 0 18 -16 22 -16 4
-32 28 -61 91 -21 47 -40 83 -42 81 -3 -2 1 -14 7 -26 6 -12 9 -24 6 -27 -3
-3 -10 7 -16 22 -7 20 -8 31 0 39 12 12 14 66 2 66 -4 0 -14 16 -21 36 -7 19
-15 33 -18 31 -2 -3 0 -14 5 -24 5 -10 12 -38 16 -63 5 -40 4 -37 -13 18 -10
35 -16 72 -14 82 4 14 -5 25 -28 39 -47 29 -49 27 -27 -18z"/>
<path d="M1001 1549 c-1 -23 -26 -41 -69 -50 l-37 -7 45 -1 c58 -1 84 18 71
50 -6 15 -10 18 -10 8z"/>
<path d="M477 1443 c-5 -12 -22 -34 -38 -48 -17 -14 -25 -25 -19 -25 8 0 10
-9 5 -27 -5 -22 -4 -25 8 -14 8 6 21 26 28 44 7 18 17 35 22 38 5 4 7 17 5 30
l-4 24 -7 -22z"/>
<path d="M316 1425 c-3 -8 -1 -15 4 -15 6 0 10 7 10 15 0 8 -2 15 -4 15 -2 0
-6 -7 -10 -15z"/>
<path d="M1586 1417 c3 -10 9 -15 12 -12 3 3 0 11 -7 18 -10 9 -11 8 -5 -6z"/>
<path d="M282 1363 c2 -12 12 -18 28 -17 69 2 90 5 90 12 0 4 -18 6 -39 4 -21
-2 -49 1 -61 8 -19 10 -21 9 -18 -7z"/>
<path d="M822 1348 c-1 -20 -5 -45 -8 -55 -5 -17 -5 -17 6 0 6 9 9 34 7 55
l-4 37 -1 -37z"/>
<path d="M1660 1306 c0 -2 7 -7 16 -10 8 -3 12 -2 9 4 -6 10 -25 14 -25 6z"/>
<path d="M1518 1268 c5 -5 16 -8 23 -6 8 3 3 7 -10 11 -17 4 -21 3 -13 -5z"/>
<path d="M1761 1276 c2 -2 15 -9 29 -15 24 -11 24 -11 6 3 -16 13 -49 24 -35
12z"/>
<path d="M1598 1243 c7 -3 16 -2 19 1 4 3 -2 6 -13 5 -11 0 -14 -3 -6 -6z"/>
<path d="M1668 1233 c12 -2 32 -2 45 0 12 2 2 4 -23 4 -25 0 -35 -2 -22 -4z"/>
<path d="M1790 1206 c0 -2 7 -7 16 -10 8 -3 12 -2 9 4 -6 10 -25 14 -25 6z"/>
<path d="M765 1117 c-37 -101 -59 -116 -139 -98 -70 16 -145 52 -191 92 -25
22 -40 30 -43 21 -2 -6 -8 -10 -13 -6 -13 8 -11 -10 4 -25 10 -11 9 -12 -2 -6
-9 5 -7 -1 4 -19 15 -23 55 -40 41 -17 -10 15 63 3 80 -13 8 -9 23 -16 32 -16
10 0 26 -6 37 -14 73 -49 163 -18 197 69 16 41 21 45 75 65 17 7 34 19 37 27
5 11 -3 10 -30 -6 -37 -22 -49 -20 -56 11 -1 9 -16 -20 -33 -65z"/>
<path d="M461 969 c-13 -11 -29 -19 -37 -19 -15 0 -17 -22 -3 -60 l8 -25 -2
25 c-2 21 5 28 38 41 41 17 57 42 33 52 -8 2 -24 -4 -37 -14z"/>
<path d="M1143 980 c2 -8 -5 -20 -17 -27 -12 -7 -15 -12 -8 -13 7 0 10 -6 7
-12 -4 -7 2 -2 13 11 15 18 21 21 25 10 3 -8 6 -9 6 -3 1 5 -6 19 -15 30 -10
12 -14 14 -11 4z"/>
<path d="M986 921 c-3 -4 -18 -11 -33 -14 -16 -3 -44 -17 -64 -30 -29 -19 -40
-22 -50 -14 -8 8 -8 4 1 -8 8 -11 18 -22 22 -25 4 -3 3 -12 -2 -20 -7 -10 -10
-11 -10 -2 0 6 -5 12 -11 12 -8 0 -7 -5 2 -16 12 -14 14 -14 26 2 7 9 10 20 8
25 -3 4 9 18 26 30 28 19 34 20 53 9 19 -12 20 -11 8 2 -10 13 -10 17 4 22 9
3 20 4 25 0 5 -3 9 0 9 5 0 6 8 11 18 11 14 0 15 2 2 10 -19 12 -27 12 -34 1z"/>
<path d="M666 912 c-3 -5 15 -14 40 -20 24 -7 44 -16 44 -22 0 -5 11 -10 25
-10 14 0 25 -4 25 -9 0 -5 6 -11 14 -14 11 -4 11 -1 2 18 -6 13 -13 23 -16 22
-3 -1 -31 9 -63 21 -66 25 -64 25 -71 14z"/>
<path d="M560 886 c0 -2 7 -9 15 -16 9 -7 15 -8 15 -2 0 5 -7 12 -15 16 -8 3
-15 4 -15 2z"/>
<path d="M638 873 c7 -3 16 -2 19 1 4 3 -2 6 -13 5 -11 0 -14 -3 -6 -6z"/>
<path d="M589 843 c-13 -16 -12 -17 4 -4 9 7 17 15 17 17 0 8 -8 3 -21 -13z"/>
<path d="M445 821 c-3 -5 4 -35 16 -66 16 -43 24 -54 33 -45 8 8 7 14 -5 23
-18 14 -41 75 -33 88 3 5 3 9 0 9 -3 0 -7 -4 -11 -9z"/>
<path d="M866 767 c3 -10 9 -15 12 -12 3 3 0 11 -7 18 -10 9 -11 8 -5 -6z"/>
<path d="M550 725 c0 -8 2 -15 4 -15 2 0 6 7 10 15 3 8 1 15 -4 15 -6 0 -10
-7 -10 -15z"/>
<path d="M911 696 c18 -27 41 -58 51 -68 19 -19 19 -20 -6 -45 -14 -14 -26
-29 -26 -33 0 -4 -11 -12 -24 -18 -21 -9 -23 -15 -16 -50 14 -81 83 -132 179
-132 76 0 83 -46 9 -53 -24 -3 -10 -3 31 -1 124 7 180 50 165 129 -6 32 -8 34
-19 18 -7 -10 -11 -21 -9 -25 3 -5 -2 -8 -10 -8 -9 0 -16 -5 -16 -11 0 -5 -4
-8 -9 -5 -5 4 -11 0 -13 -6 -8 -22 -165 -16 -213 7 -48 24 -82 80 -62 103 7 8
11 17 10 19 -9 11 -1 24 11 20 9 -4 12 0 9 12 -2 10 2 23 10 30 13 10 16 9 22
-8 3 -10 17 -27 31 -36 13 -9 23 -19 20 -23 -3 -4 5 -9 17 -9 17 -2 19 0 7 7
-8 5 -11 10 -6 10 5 0 3 6 -4 14 -10 13 -7 13 19 3 27 -10 33 -9 48 8 15 16
15 17 1 6 -13 -10 -23 -9 -52 3 -37 15 -106 78 -106 96 0 5 -5 10 -11 10 -5 0
-7 5 -3 12 4 7 3 8 -4 4 -7 -4 -12 -4 -12 1 0 4 -12 22 -26 38 -19 22 -17 18
7 -19z"/>
<path d="M931 713 c7 -12 15 -20 18 -17 3 2 -3 12 -13 22 -17 16 -18 16 -5 -5z"/>
<path d="M496 679 c3 -6 6 -34 5 -63 0 -39 5 -58 23 -80 12 -16 28 -27 35 -25
8 3 5 11 -9 26 -11 12 -20 26 -20 32 0 5 -5 11 -11 13 -7 2 -10 10 -7 18 3 9
17 -4 38 -33 32 -44 61 -59 75 -37 3 5 0 7 -7 5 -13 -5 -58 36 -58 53 -1 4
-11 20 -24 36 -14 16 -22 35 -20 41 3 7 -2 15 -11 19 -10 3 -14 2 -9 -5z"/>
<path d="M1277 633 c-2 -21 -1 -45 4 -53 5 -10 9 4 9 38 0 61 -6 68 -13 15z"/>
<path d="M570 630 c0 -5 5 -10 10 -10 6 0 10 5 10 10 0 6 -4 10 -10 10 -5 0
-10 -4 -10 -10z"/>
<path d="M1030 619 c0 -5 5 -7 10 -4 6 3 10 8 10 11 0 2 -4 4 -10 4 -5 0 -10
-5 -10 -11z"/>
<path d="M1010 606 c0 -2 11 -11 25 -20 14 -9 25 -13 25 -8 0 5 -11 14 -25 20
-14 6 -25 10 -25 8z"/>
<path d="M466 565 c-11 -8 -29 -15 -39 -15 -15 0 -17 -3 -9 -13 6 -7 9 -23 5
-35 -3 -12 -3 -32 1 -45 7 -29 68 -91 110 -111 18 -8 40 -24 50 -35 17 -19 17
-20 -3 -31 -25 -13 -90 12 -133 52 l-26 25 -4 -53 c-2 -43 1 -58 20 -79 l22
-26 1 23 c1 13 2 35 2 51 -1 32 4 33 36 10 16 -11 52 -18 102 -21 66 -4 83 -1
112 17 33 20 57 57 57 86 0 19 -14 19 -30 1 -6 -8 -17 -13 -25 -10 -7 3 -16 1
-20 -5 -3 -6 -23 -11 -44 -11 -45 0 -114 26 -106 40 3 5 0 8 -7 5 -19 -7 -68
42 -68 68 0 16 -3 18 -9 9 -7 -11 -10 -10 -15 3 -11 30 -7 48 10 41 8 -3 12
-2 9 4 -3 6 1 13 9 16 9 3 16 10 16 16 0 5 -4 6 -10 3 -14 -9 -13 8 2 23 16
16 7 15 -16 -3z m-1 -35 c-3 -5 -10 -10 -16 -10 -5 0 -9 5 -9 10 0 6 7 10 16
10 8 0 12 -4 9 -10z"/>
<path d="M1258 553 c7 -3 16 -2 19 1 4 3 -2 6 -13 5 -11 0 -14 -3 -6 -6z"/>
<path d="M1150 546 c0 -2 13 -6 29 -8 17 -2 28 -1 25 4 -5 8 -54 12 -54 4z"/>
<path d="M836 525 c-9 -26 -7 -32 5 -12 6 10 9 21 6 23 -2 3 -7 -2 -11 -11z"/>
<path d="M556 492 c-3 -5 1 -9 9 -9 8 0 15 4 15 9 0 4 -4 8 -9 8 -6 0 -12 -4
-15 -8z"/>
<path d="M740 480 c-8 -5 -10 -10 -5 -10 6 0 17 5 25 10 8 5 11 10 5 10 -5 0
-17 -5 -25 -10z"/>
<path d="M347 407 l-25 -33 23 -28 23 -29 6 44 c5 42 5 79 1 79 -2 0 -14 -15
-28 -33z"/>
<path d="M876 378 c10 -14 21 -24 23 -22 3 3 -6 15 -18 27 l-24 22 19 -27z"/>
<path d="M814 314 c-20 -48 -13 -60 55 -98 l53 -28 -7 33 c-10 46 -28 79 -59
108 l-26 24 -16 -39z"/>
<path d="M915 333 c7 -17 43 -124 51 -150 2 -7 13 -13 24 -13 17 0 19 4 14 28
-18 82 -35 118 -65 135 -30 17 -31 17 -24 0z"/>
</g>
</svg>
