<?xml version="1.0" standalone="no"?>
<!DOCTYPE svg PUBLIC "-//W3C//DTD SVG 20010904//EN"
 "http://www.w3.org/TR/2001/REC-SVG-20010904/DTD/svg10.dtd">
<svg version="1.0" xmlns="http://www.w3.org/2000/svg"
 width="220.000000pt" height="229.000000pt" viewBox="0 0 220.000000 229.000000"
 preserveAspectRatio="xMidYMid meet">

<g transform="translate(0.000000,229.000000) scale(0.100000,-0.100000)"
fill="#000000" stroke="none">
<path d="M1495 2278 c-3 -8 1 -30 9 -49 8 -18 15 -52 17 -74 2 -33 -2 -45 -24
-67 -15 -15 -27 -38 -27 -52 0 -18 -9 -30 -29 -40 -41 -22 -90 -82 -119 -145
-20 -46 -26 -77 -30 -167 l-4 -111 96 -5 c53 -3 99 -8 103 -11 10 -11 -18 -66
-50 -97 -55 -53 -105 -70 -215 -70 -84 0 -105 -4 -142 -23 -55 -29 -110 -106
-110 -153 0 -40 -24 -54 -93 -54 -23 0 -65 -3 -94 -6 l-52 -7 -7 -42 -6 -43
-79 -12 c-102 -14 -168 -34 -249 -75 -36 -18 -82 -35 -104 -38 -21 -3 -46 -13
-55 -21 -17 -16 -62 -11 -122 14 -26 11 -32 9 -61 -15 -48 -40 -51 -50 -22
-70 26 -17 27 -16 48 9 19 24 25 26 69 20 40 -6 50 -12 58 -32 12 -32 -2 -70
-40 -106 -24 -23 -29 -25 -46 -12 -18 13 -21 11 -37 -15 -25 -40 -24 -43 23
-65 l42 -18 29 34 c17 19 41 52 55 73 13 22 39 45 58 53 19 8 41 27 49 42 24
46 251 131 351 132 l40 0 13 -67 c7 -39 31 -107 57 -160 l46 -93 -40 -83 c-22
-45 -43 -96 -47 -112 -4 -17 -9 -34 -13 -40 -3 -5 -7 -19 -8 -30 -2 -11 -8
-44 -13 -74 -6 -30 -10 -72 -10 -94 0 -22 -9 -54 -19 -71 -28 -45 -47 -114
-34 -127 6 -6 51 -7 121 -3 l112 7 0 26 c0 46 -19 97 -45 121 -21 20 -25 33
-25 79 1 103 19 189 55 260 19 38 38 72 43 75 5 3 36 -4 68 -15 58 -21 123
-22 181 -4 18 6 25 0 46 -42 25 -49 70 -202 82 -279 5 -36 3 -45 -19 -67 -23
-23 -40 -69 -48 -126 -3 -24 -1 -24 62 -23 36 2 89 5 118 8 l52 6 0 50 c0 42
-5 54 -30 80 -28 28 -30 34 -30 107 0 115 -56 307 -106 362 -13 15 -12 20 11
55 14 20 39 83 56 138 17 56 32 107 34 114 3 8 29 12 82 12 91 0 162 -11 270
-40 72 -19 80 -24 98 -58 16 -29 27 -38 55 -42 20 -3 59 -23 92 -48 l56 -43
44 22 c56 28 55 25 28 54 -17 19 -27 22 -41 15 -28 -15 -46 -12 -76 14 -37 32
-24 62 39 86 l47 18 27 -29 27 -28 28 21 29 21 -43 47 c-42 46 -42 46 -78 34
-20 -7 -51 -20 -69 -29 -30 -16 -33 -16 -54 3 -33 30 -42 33 -70 22 -18 -6
-37 -5 -65 5 -38 13 -191 36 -335 51 l-68 7 6 43 6 44 -38 0 c-77 0 -292 24
-292 33 0 22 43 66 84 85 24 12 81 26 126 31 111 14 154 27 190 57 44 38 80
104 87 163 l6 51 98 0 98 0 13 43 c16 55 16 231 0 285 -16 51 -60 104 -107
126 -19 9 -35 23 -35 31 0 8 -11 26 -24 41 -17 21 -33 28 -59 28 -32 0 -37 4
-43 29 -3 15 -4 54 -2 85 2 48 0 57 -15 60 -9 2 -19 -3 -22 -10z m194 -278
c50 -25 87 -70 102 -123 16 -53 15 -199 0 -254 -10 -36 -16 -43 -36 -43 -23 0
-25 4 -25 41 0 49 -24 102 -57 129 -14 11 -49 21 -88 25 -56 6 -71 4 -112 -16
-55 -27 -93 -83 -93 -137 0 -32 -1 -33 -37 -30 l-38 3 -3 58 c-6 116 47 262
112 312 74 56 202 73 275 35z m-147 -327 l2 -88 3 88 c5 115 23 113 23 -3 l0
-90 -29 0 c-26 0 -29 3 -35 46 -3 26 -6 66 -6 90 0 37 3 44 20 44 18 0 20 -7
22 -87z m72 41 c11 -80 8 -134 -8 -134 -20 0 -26 23 -26 106 0 56 3 74 14 74
8 0 16 -17 20 -46z m-121 -56 c4 -61 3 -78 -8 -78 -18 0 -25 23 -25 85 0 114
25 108 33 -7z m159 -10 c3 -51 1 -68 -9 -68 -10 0 -13 22 -12 88 0 99 14 86
21 -20z m45 -8 c5 -60 4 -72 -8 -68 -17 6 -26 45 -28 118 -1 49 1 53 14 39 10
-10 18 -43 22 -89z m-247 10 c0 -38 -4 -70 -9 -70 -13 0 -25 83 -17 115 12 48
26 25 26 -45z m-36 -32 c6 -31 4 -38 -9 -38 -16 0 -19 20 -9 58 8 28 10 26 18
-20z m166 -77 c0 -27 -13 -33 -44 -21 -39 15 -34 40 9 40 28 0 35 -4 35 -19z
m-26 -52 c16 -15 -1 -22 -30 -12 -39 13 -45 36 -7 27 15 -4 32 -10 37 -15z
m-35 -30 c32 -11 39 -23 20 -35 -6 -3 -23 5 -37 20 -30 29 -28 31 17 15z m1
-64 c0 -10 -11 -6 -42 18 -17 14 -28 29 -24 36 5 7 17 1 37 -19 16 -16 30 -32
29 -35z m-30 -19 c10 -13 9 -17 -5 -22 -20 -8 -81 48 -71 65 8 12 50 -13 76
-43z m-58 -18 c17 -17 18 -22 7 -29 -29 -18 -45 -9 -55 31 -8 28 -8 40 0 43 6
2 15 -3 20 -11 4 -8 17 -23 28 -34z m-223 -15 c14 -49 14 -53 -3 -53 -8 0 -22
19 -32 43 -11 27 -19 36 -21 25 -2 -9 3 -31 13 -49 l16 -33 -41 33 c-55 44
-57 49 -19 60 64 18 76 14 87 -26z m155 21 c10 -27 7 -54 -8 -54 -8 0 -19 14
-25 30 -5 17 -15 30 -20 30 -7 0 -7 -8 -1 -26 13 -34 13 -34 -15 -34 -14 0
-24 3 -24 8 4 21 -2 42 -12 42 -5 0 -9 -8 -8 -17 1 -10 1 -25 0 -33 -2 -24
-21 9 -21 37 0 23 16 28 91 32 25 1 39 -4 43 -15z m-245 -60 c56 -48 45 -57
-13 -10 -24 20 -47 33 -50 28 -3 -5 13 -22 34 -38 43 -32 46 -37 28 -52 -9 -7
-28 -2 -65 17 l-52 28 29 31 c16 18 33 32 38 32 4 0 27 -16 51 -36z m-73 -70
c24 -14 44 -29 44 -34 0 -4 -21 -3 -47 1 -43 8 -63 6 -51 -6 3 -3 25 -9 49
-14 l44 -9 -52 -1 c-49 -1 -53 1 -53 22 0 26 10 67 17 67 2 0 24 -12 49 -26z
m244 -105 c63 -7 116 -13 118 -14 7 -6 -22 -150 -50 -250 -45 -162 -93 -237
-179 -280 -96 -49 -241 -17 -317 69 -75 85 -118 221 -121 378 l-2 97 33 5 c18
3 49 8 68 10 58 7 327 -2 450 -15z m-620 -131 c0 -10 -4 -18 -10 -18 -5 0 -10
15 -10 33 0 24 3 28 10 17 5 -8 10 -23 10 -32z m50 12 c0 -20 -5 -30 -15 -30
-10 0 -15 10 -15 30 0 20 5 30 15 30 10 0 15 -10 15 -30z m-121 -37 c1 -7 -6
-13 -14 -13 -16 0 -22 50 -8 64 7 7 20 -23 22 -51z m31 27 c0 -16 -4 -30 -10
-30 -5 0 -10 14 -10 30 0 17 5 30 10 30 6 0 10 -13 10 -30z m791 -11 l-10 -24
0 26 c-1 14 2 29 6 33 12 12 14 -9 4 -35z m37 10 c-6 -16 -12 -28 -15 -26 -7
7 8 57 18 57 4 0 3 -14 -3 -31z m-911 -31 c-2 -13 -4 -5 -4 17 -1 22 1 32 4
23 2 -10 2 -28 0 -40z m951 27 c-11 -24 -28 -34 -28 -16 0 21 13 41 26 41 11
0 11 -5 2 -25z m45 0 c-17 -23 -33 -32 -33 -19 0 16 23 44 36 44 13 0 12 -4
-3 -25z m41 0 c-15 -23 -34 -33 -34 -18 0 10 32 43 42 43 5 0 1 -11 -8 -25z
m-1064 -20 c0 -19 -4 -35 -10 -35 -12 0 -24 45 -15 59 13 22 25 10 25 -24z
m1120 28 c0 -13 -33 -43 -48 -43 -12 0 -10 6 8 25 23 24 40 32 40 18z m60 -13
c0 -16 -40 -42 -56 -36 -15 6 -15 9 6 31 20 21 50 25 50 5z m50 5 c0 -15 -34
-55 -46 -55 -20 0 -17 10 8 37 20 22 38 30 38 18z m-1276 -31 c4 -15 2 -32 -3
-37 -8 -8 -11 -7 -11 4 0 7 -3 24 -6 37 -4 12 -2 22 4 22 5 0 13 -12 16 -26z
m1304 -4 c-20 -28 -38 -39 -38 -23 0 10 42 53 52 53 5 0 -1 -13 -14 -30z
m-1338 -21 c0 -16 -4 -29 -9 -29 -10 0 -22 51 -14 63 9 15 23 -5 23 -34z
m1383 5 c-8 -13 -22 -24 -29 -24 -18 0 -18 6 3 34 24 32 48 23 26 -10z m-1421
-19 c3 -14 2 -27 -2 -30 -10 -6 -32 44 -24 56 8 14 21 2 26 -26z m-37 -25 l6
-25 -20 25 c-11 13 -17 28 -14 33 7 12 19 -3 28 -33z m930 -299 l15 -29 -45
-15 c-40 -14 -45 -14 -57 1 -7 9 -8 13 -3 10 13 -8 75 18 75 32 0 6 -12 5 -32
-5 l-33 -16 30 25 c17 14 31 26 32 26 1 0 9 -13 18 -29z m-411 4 c10 -7 15
-19 11 -25 -5 -8 -13 -6 -26 6 -33 30 -21 46 15 19z m-9 -63 c-7 -7 -45 29
-45 41 0 6 11 0 25 -13 14 -13 23 -26 20 -28z m-31 -4 c24 -34 19 -44 -9 -18
-14 13 -25 27 -25 32 0 16 19 8 34 -14z m511 -81 c36 -111 35 -117 -19 -117
-25 0 -48 5 -51 10 -4 6 8 10 29 10 50 0 54 18 5 22 -25 2 -44 9 -47 17 -3 10
2 12 21 7 28 -7 57 1 57 16 0 5 -5 6 -11 3 -6 -4 -27 -3 -47 1 l-37 8 34 5
c50 9 50 27 1 23 -30 -3 -40 -1 -40 11 0 8 13 17 30 21 17 3 30 10 30 15 0 5
-15 6 -35 1 -21 -5 -38 -4 -41 2 -7 12 -8 11 41 29 48 18 47 19 80 -84z m-515
25 c0 -12 -4 -12 -20 3 -11 10 -20 25 -20 33 0 12 4 12 20 -3 11 -10 20 -25
20 -33z m-10 -35 c0 -6 -9 -2 -20 8 -11 10 -20 23 -20 28 0 6 9 2 20 -8 11
-10 20 -23 20 -28z m-15 -35 c-7 -7 -45 29 -45 41 0 6 11 0 25 -13 14 -13 23
-26 20 -28z m-6 -26 c17 -21 -2 -28 -27 -10 -28 19 -31 49 -4 35 10 -5 24 -17
31 -25z m-24 -32 c14 -9 25 -23 25 -31 0 -12 -6 -11 -32 6 -34 21 -48 41 -28
41 6 0 22 -7 35 -16z m23 -74 c3 -7 -8 -6 -30 3 -18 7 -35 22 -37 32 -3 17 -1
17 30 -3 19 -11 35 -26 37 -32z m582 5 c0 -34 -1 -35 -39 -35 -25 0 -41 5 -44
15 -5 11 -1 12 20 4 27 -10 61 -4 49 9 -7 7 -12 8 -52 10 -12 1 -24 9 -28 17
-4 12 4 15 44 15 l50 0 0 -35z m-614 -22 c24 -10 33 -18 23 -20 -21 -5 -69 14
-69 27 0 13 1 13 46 -7z m34 -55 c0 -11 -23 -10 -54 2 -41 15 -30 28 14 17 22
-6 40 -15 40 -19z m579 0 c0 -13 -3 -17 -6 -10 -2 6 -14 12 -26 12 -12 0 -29
5 -37 10 -11 7 -4 10 28 10 37 0 42 -3 41 -22z m-632 -24 c-3 -3 -12 -4 -19
-1 -8 3 -5 6 6 6 11 1 17 -2 13 -5z"/>
<path d="M1450 1923 c-54 -21 -32 -123 26 -123 30 0 44 20 44 61 0 28 -6 42
-22 53 -24 17 -25 17 -48 9z m50 -34 c6 -11 10 -30 8 -42 -2 -17 -10 -22 -32
-22 -38 0 -54 25 -38 59 14 31 47 34 62 5z"/>
<path d="M1450 1876 c0 -15 18 -31 26 -23 7 7 -7 37 -17 37 -5 0 -9 -6 -9 -14z"/>
<path d="M1600 1904 c-14 -36 -12 -49 8 -66 28 -24 48 -28 71 -12 42 30 14
104 -40 104 -22 0 -32 -6 -39 -26z m69 2 c18 -21 10 -70 -12 -74 -41 -8 -66
56 -29 77 23 14 28 13 41 -3z"/>
<path d="M1635 1890 c-7 -12 2 -30 16 -30 12 0 12 27 0 35 -5 3 -12 1 -16 -5z"/>
<path d="M1158 1057 c-50 -12 -70 -38 -76 -97 -6 -61 14 -95 66 -117 74 -31
162 28 162 108 0 22 -5 49 -10 59 -21 38 -88 61 -142 47z m31 -24 c2 42 92 -7
105 -58 4 -14 0 -40 -8 -60 -12 -27 -19 -33 -33 -28 -10 3 -15 3 -11 -2 11
-12 -11 -35 -33 -35 -11 0 -19 6 -20 13 0 10 -2 10 -6 0 -6 -15 -22 -16 -42
-4 -13 8 -13 12 0 27 13 16 12 16 -9 5 -18 -10 -23 -9 -27 4 -3 8 -7 22 -10
30 -3 10 3 15 18 16 l22 0 -22 9 c-15 6 -20 15 -16 30 7 28 21 34 40 18 15
-12 15 -11 4 10 -10 20 -9 23 11 31 17 6 25 5 30 -8 6 -14 7 -14 7 2z"/>
<path d="M1230 995 c-7 -8 -23 -15 -36 -15 -19 0 -24 -5 -24 -25 0 -18 5 -25
20 -25 11 0 20 5 20 12 0 6 15 24 33 39 22 20 27 28 16 29 -9 0 -22 -7 -29
-15z"/>
<path d="M1248 923 c6 -2 18 -2 25 0 6 3 1 5 -13 5 -14 0 -19 -2 -12 -5z"/>
<path d="M812 1048 c-15 -15 -15 -51 0 -66 36 -36 93 11 69 57 -13 23 -50 28
-69 9z"/>
<path d="M944 1036 c-10 -40 -1 -61 26 -61 27 0 48 39 37 69 -10 26 -56 20
-63 -8z m49 2 c6 -18 -10 -58 -23 -58 -17 0 -23 27 -10 49 12 24 26 27 33 9z"/>
<path d="M835 918 c-20 -16 -25 -28 -23 -52 3 -28 7 -31 41 -34 32 -3 38 0 47
22 11 30 -1 70 -24 79 -8 3 -27 -3 -41 -15z m51 -23 c9 -36 -2 -55 -30 -55
-32 0 -40 25 -18 55 22 31 40 31 48 0z"/>
<path d="M954 925 c-8 -21 3 -45 20 -45 16 0 31 34 21 50 -9 15 -35 12 -41 -5z"/>
</g>
</svg>
