<?xml version="1.0" standalone="no"?>
<!DOCTYPE svg PUBLIC "-//W3C//DTD SVG 20010904//EN"
 "http://www.w3.org/TR/2001/REC-SVG-20010904/DTD/svg10.dtd">
<svg version="1.0" xmlns="http://www.w3.org/2000/svg"
 width="225.000000pt" height="225.000000pt" viewBox="0 0 225.000000 225.000000"
 preserveAspectRatio="xMidYMid meet">

<g transform="translate(0.000000,225.000000) scale(0.100000,-0.100000)"
fill="#000000" stroke="none">
<path d="M910 1849 c-87 -14 -175 -47 -201 -75 -23 -25 -24 -31 -24 -184 0
-152 1 -159 23 -183 28 -29 118 -60 225 -77 103 -17 390 -8 472 15 80 22 128
48 149 80 15 23 17 48 14 175 -3 131 -5 150 -23 170 -52 59 -207 91 -429 89
-83 -1 -176 -5 -206 -10z m53 -222 c10 -11 17 -30 15 -41 -3 -18 -10 -20 -65
-21 -68 -1 -80 9 -62 49 22 47 77 54 112 13z m394 23 c33 -12 59 -55 44 -74
-5 -6 -36 -11 -68 -11 -55 0 -58 1 -61 26 -2 19 4 33 24 48 15 11 28 21 29 21
1 0 16 -5 32 -10z m-177 -182 c0 -19 -32 -48 -53 -48 -24 0 -57 27 -57 47 0 9
16 13 55 13 35 0 55 -4 55 -12z"/>
</g>
</svg>
